<svg width="20" height="20" viewBox="0 0 20 20" fill="none" xmlns="http://www.w3.org/2000/svg">
<path d="M10 2.76172C12.0742 2.76172 13.8438 3.49414 15.3086 4.95898C16.7734 6.42383 17.5059 8.1875 17.5059 10.25C17.5059 12.3125 16.7734 14.0762 15.3086 15.541C13.8438 17.0059 12.0742 17.7383 10 17.7383C7.92578 17.7383 6.15625 17.0059 4.69141 15.541C3.22656 14.0762 2.49414 12.3125 2.49414 10.25C2.49414 8.1875 3.22656 6.42383 4.69141 4.95898C6.15625 3.49414 7.92578 2.76172 10 2.76172ZM8.50586 14.0117L15.2559 7.26172L14.2012 6.17188L8.50586 11.8672L5.79883 9.19531L4.74414 10.25L8.50586 14.0117Z" fill="#13A96D"/>
</svg>
