<svg width="20" height="20" viewBox="0 0 20 20" fill="none" xmlns="http://www.w3.org/2000/svg">
<path d="M9.24414 12.5H10.7559V14.0117H9.24414V12.5ZM9.24414 6.48828H10.7559V10.9883H9.24414V6.48828ZM10 2.76172C12.0742 2.76172 13.8438 3.49414 15.3086 4.95898C16.7734 6.42383 17.5059 8.1875 17.5059 10.25C17.5059 12.3125 16.7734 14.0762 15.3086 15.541C13.8438 17.0059 12.0742 17.7383 10 17.7383C7.92578 17.7383 6.15625 17.0059 4.69141 15.541C3.22656 14.0762 2.49414 12.3125 2.49414 10.25C2.49414 8.1875 3.22656 6.42383 4.69141 4.95898C6.15625 3.49414 7.92578 2.76172 10 2.76172ZM10 16.2617C11.6523 16.2617 13.0645 15.6758 14.2363 14.5039C15.4082 13.332 15.9941 11.9141 15.9941 10.25C15.9941 8.58594 15.4082 7.16797 14.2363 5.99609C13.0645 4.82422 11.6523 4.23828 10 4.23828C8.34766 4.23828 6.93555 4.82422 5.76367 5.99609C4.5918 7.16797 4.00586 8.58594 4.00586 10.25C4.00586 11.9141 4.5918 13.332 5.76367 14.5039C6.93555 15.6758 8.34766 16.2617 10 16.2617Z" fill="#F44336"/>
</svg>
