<svg width="28" height="28" viewBox="0 0 28 28" fill="none" xmlns="http://www.w3.org/2000/svg">
<path d="M25.3204 11.2252C23.9268 11.2083 22.5776 10.482 21.8303 9.18759C21.1111 7.94158 21.1257 6.47567 21.7358 5.28333C20.4963 4.18258 19.028 3.33558 17.4017 2.84033C16.6696 3.94108 15.4201 4.66675 13.9997 4.66675C12.5793 4.66675 11.3298 3.94108 10.5983 2.84033C8.97193 3.33558 7.50368 4.18258 6.26409 5.28333C6.87426 6.47567 6.88884 7.94158 6.16959 9.18759C5.42234 10.482 4.07309 11.2083 2.67951 11.2252C2.46134 12.1159 2.33301 13.0423 2.33301 14.0001C2.33301 14.7491 2.41059 15.4788 2.54534 16.1888C3.98559 16.159 5.39843 16.8934 6.16959 18.2293C6.96759 19.6118 6.86201 21.2649 6.04126 22.5138C7.25576 23.6496 8.70884 24.5298 10.3229 25.0659C10.9821 23.6974 12.3786 22.7501 13.9997 22.7501C15.6208 22.7501 17.0173 23.6974 17.6764 25.0665C19.2905 24.5304 20.7436 23.6502 21.9581 22.5144C21.1373 21.2655 21.0318 19.6123 21.8298 18.2298C22.6009 16.894 24.0132 16.1596 25.454 16.1893C25.5888 15.4788 25.6663 14.7491 25.6663 14.0001C25.6663 13.0423 25.538 12.1159 25.3204 11.2252Z" fill="#4853D5"/>
<path d="M11.083 18.4148V9.58601C11.083 9.15259 11.566 8.89359 11.9271 9.13451L18.5491 13.5492C18.8717 13.7638 18.8717 14.2375 18.5491 14.4528L11.9271 18.8674C11.566 19.1072 11.083 18.8488 11.083 18.4148Z" fill="white"/>
</svg>
