<svg width="24" height="24" viewBox="0 0 24 24" fill="none" xmlns="http://www.w3.org/2000/svg">
<path d="M20.9766 6C21.2578 6 21.5 6.10156 21.7031 6.30469C21.9062 6.50781 22.0078 6.73438 22.0078 6.98438V21.9844L17.9766 18H7.00781C6.72656 18 6.48438 17.8984 6.28125 17.6953C6.07812 17.4922 5.97656 17.2656 5.97656 17.0156V15H19.0078V6H20.9766ZM16.9922 12C16.9922 12.2812 16.8906 12.5156 16.6875 12.7031C16.4844 12.8906 16.2578 12.9844 16.0078 12.9844H5.97656L1.99219 17.0156V3C1.99219 2.71875 2.09375 2.48438 2.29688 2.29688C2.5 2.10938 2.72656 2.01562 2.97656 2.01562H16.0078C16.2578 2.01562 16.4844 2.10938 16.6875 2.29688C16.8906 2.48438 16.9922 2.71875 16.9922 3V12Z" fill="#4853D5"/>
</svg>
