<svg width="20" height="20" viewBox="0 0 20 20" fill="none" xmlns="http://www.w3.org/2000/svg">
<path d="M11.4941 2.76172L15.9941 7.26172V16.2617C15.9941 16.6602 15.8477 17.0059 15.5547 17.2988C15.2617 17.5918 14.916 17.7383 14.5176 17.7383H5.48242C5.08398 17.7383 4.73828 17.5918 4.44531 17.2988C4.15234 17.0059 4.00586 16.6602 4.00586 16.2617V4.23828C4.00586 3.83984 4.15234 3.49414 4.44531 3.20117C4.73828 2.9082 5.0957 2.76172 5.51758 2.76172H11.4941ZM13.0059 13.2383V11.7617H10.7559V9.51172H9.24414V11.7617H6.99414V13.2383H9.24414V15.4883H10.7559V13.2383H13.0059ZM10.7559 8H14.8691L10.7559 3.88672V8Z" fill="#2E2698"/>
</svg>
