<svg width="20" height="20" viewBox="0 0 20 20" fill="none" xmlns="http://www.w3.org/2000/svg">
<path d="M15.2383 15.4883V10.25H16.75V15.4883C16.75 15.9102 16.6035 16.2676 16.3105 16.5605C16.0176 16.8535 15.6602 17 15.2383 17H4.76172C4.33984 17 3.98242 16.8535 3.68945 16.5605C3.39648 16.2676 3.25 15.9102 3.25 15.4883V5.01172C3.25 4.58984 3.39648 4.23242 3.68945 3.93945C3.98242 3.64648 4.33984 3.5 4.76172 3.5H10V5.01172H4.76172V15.4883H15.2383ZM11.5117 3.5H16.75V8.73828H15.2383V6.06641L7.89062 13.4141L6.83594 12.3594L14.1836 5.01172H11.5117V3.5Z" fill="#7D87FF"/>
</svg>
