<svg width="24" height="24" viewBox="0 0 24 24" fill="none" xmlns="http://www.w3.org/2000/svg">
<path d="M12 11.5312C14.5312 9.1875 17.5312 8.01562 21 8.01562V18.9844C17.5625 18.9844 14.5625 20.1719 12 22.5469C9.46875 20.1719 6.46875 18.9844 3 18.9844V8.01562C6.46875 8.01562 9.46875 9.1875 12 11.5312ZM12 8.01562C11.1562 8.01562 10.4453 7.71875 9.86719 7.125C9.28906 6.53125 9 5.82031 9 4.99219C9 4.16406 9.28906 3.46094 9.86719 2.88281C10.4453 2.30469 11.1562 2.01562 12 2.01562C12.8438 2.01562 13.5547 2.30469 14.1328 2.88281C14.7109 3.46094 15 4.16406 15 4.99219C15 5.82031 14.7109 6.53125 14.1328 7.125C13.5547 7.71875 12.8438 8.01562 12 8.01562Z" fill="#4853D5"/>
</svg>
