<svg width="24" height="24" viewBox="0 0 24 24" fill="none" xmlns="http://www.w3.org/2000/svg">
<rect width="24" height="24" rx="12" fill="#227922"/>
<path d="M12 12.5C11.4453 12.5 10.9727 12.3047 10.582 11.9141C10.1914 11.5234 9.99609 11.0508 9.99609 10.4961C9.99609 9.94141 10.1914 9.46875 10.582 9.07812C10.9727 8.6875 11.4453 8.49219 12 8.49219C12.5547 8.49219 13.0273 8.6875 13.418 9.07812C13.8086 9.46875 14.0039 9.94141 14.0039 10.4961C14.0039 11.0508 13.8086 11.5234 13.418 11.9141C13.0273 12.3047 12.5547 12.5 12 12.5ZM12 13.5078C12.4922 13.5078 13.0352 13.5781 13.6289 13.7188C14.2227 13.8594 14.7656 14.0898 15.2578 14.4102C15.75 14.7305 15.9961 15.0938 15.9961 15.5V16.5078H8.00391V15.5C8.00391 15.0938 8.25 14.7305 8.74219 14.4102C9.23438 14.0898 9.77734 13.8594 10.3711 13.7188C10.9648 13.5781 11.5078 13.5078 12 13.5078Z" fill="white"/>
</svg>
