<svg width="12" height="7" viewBox="0 0 12 7" fill="none" xmlns="http://www.w3.org/2000/svg">
<path d="M8.00391 3.00781C7.58203 3.00781 7.22656 2.85938 6.9375 2.5625C6.64844 2.26562 6.50391 1.91016 6.50391 1.49609C6.50391 1.08203 6.64844 0.730469 6.9375 0.441406C7.22656 0.152344 7.58203 0.0078125 8.00391 0.0078125C8.42578 0.0078125 8.78125 0.152344 9.07031 0.441406C9.35938 0.730469 9.50391 1.08203 9.50391 1.49609C9.50391 1.91016 9.35938 2.26562 9.07031 2.5625C8.78125 2.85938 8.42578 3.00781 8.00391 3.00781ZM4.00781 3.00781C3.59375 3.00781 3.23828 2.85938 2.94141 2.5625C2.64453 2.26562 2.49609 1.91016 2.49609 1.49609C2.49609 1.08203 2.64453 0.730469 2.94141 0.441406C3.23828 0.152344 3.59375 0.0078125 4.00781 0.0078125C4.42188 0.0078125 4.77344 0.152344 5.0625 0.441406C5.35156 0.730469 5.49609 1.08203 5.49609 1.49609C5.49609 1.91016 5.35156 2.26562 5.0625 2.5625C4.77344 2.85938 4.42188 3.00781 4.00781 3.00781ZM4.00781 3.99219C4.4375 3.99219 4.91016 4.05469 5.42578 4.17969C5.94141 4.30469 6.41797 4.50781 6.85547 4.78906C7.29297 5.07031 7.51172 5.39062 7.51172 5.75V6.99219H0.503906V5.75C0.503906 5.39062 0.71875 5.07031 1.14844 4.78906C1.57812 4.50781 2.05469 4.30469 2.57812 4.17969C3.10156 4.05469 3.57812 3.99219 4.00781 3.99219ZM8.00391 3.99219C8.44141 3.99219 8.91797 4.05469 9.43359 4.17969C9.94922 4.30469 10.4219 4.50781 10.8516 4.78906C11.2812 5.07031 11.4961 5.39062 11.4961 5.75V6.99219H8.49609V5.75C8.49609 5.07812 8.16797 4.5 7.51172 4.01562C7.71484 4 7.87891 3.99219 8.00391 3.99219Z" fill="white"/>
</svg>
