<svg width="24" height="24" viewBox="0 0 24 24" fill="none" xmlns="http://www.w3.org/2000/svg">
<path d="M12 10.5078C11.7266 10.5078 11.4922 10.4102 11.2969 10.2148C11.1016 10.0195 11.0039 9.78125 11.0039 9.5C11.0039 9.21875 11.1016 8.98047 11.2969 8.78516C11.4922 8.58984 11.7266 8.49219 12 8.49219C12.2734 8.49219 12.5078 8.58984 12.7031 8.78516C12.8984 8.98047 12.9961 9.21875 12.9961 9.5C12.9961 9.78125 12.8984 10.0195 12.7031 10.2148C12.5078 10.4102 12.2734 10.5078 12 10.5078ZM12 11.4922C12.2734 11.4922 12.5078 11.5898 12.7031 11.7852C12.8984 11.9805 12.9961 12.2188 12.9961 12.5C12.9961 12.7812 12.8984 13.0195 12.7031 13.2148C12.5078 13.4102 12.2734 13.5078 12 13.5078C11.7266 13.5078 11.4922 13.4102 11.2969 13.2148C11.1016 13.0195 11.0039 12.7812 11.0039 12.5C11.0039 12.2188 11.1016 11.9805 11.2969 11.7852C11.4922 11.5898 11.7266 11.4922 12 11.4922ZM12 14.4922C12.2734 14.4922 12.5078 14.5898 12.7031 14.7852C12.8984 14.9805 12.9961 15.2188 12.9961 15.5C12.9961 15.7812 12.8984 16.0195 12.7031 16.2148C12.5078 16.4102 12.2734 16.5078 12 16.5078C11.7266 16.5078 11.4922 16.4102 11.2969 16.2148C11.1016 16.0195 11.0039 15.7812 11.0039 15.5C11.0039 15.2188 11.1016 14.9805 11.2969 14.7852C11.4922 14.5898 11.7266 14.4922 12 14.4922Z" fill="white"/>
</svg>
