<svg width="56" height="32" viewBox="0 0 56 32" fill="none" xmlns="http://www.w3.org/2000/svg">
<path d="M29.5 7C32 7 34.125 7.875 35.875 9.625C37.625 11.375 38.5 13.5 38.5 16C38.5 18.5 37.625 20.625 35.875 22.375C34.125 24.125 32 25 29.5 25C27.0312 25 24.9062 24.125 23.125 22.375L24.5781 20.9219C25.9219 22.2969 27.5625 22.9844 29.5 22.9844C31.4375 22.9844 33.0859 22.3047 34.4453 20.9453C35.8047 19.5859 36.4844 17.9375 36.4844 16C36.4844 14.0625 35.8047 12.4141 34.4453 11.0547C33.0859 9.69531 31.4375 9.01562 29.5 9.01562C27.5625 9.01562 25.9141 9.69531 24.5547 11.0547C23.1953 12.4141 22.5156 14.0625 22.5156 16H25.5156L21.4375 20.0312L21.3906 19.8906L17.5 16H20.5C20.5 13.5 21.375 11.375 23.125 9.625C24.875 7.875 27 7 29.5 7ZM28.5156 12.0156H30.0156V16.2344L33.4844 18.3438L32.7812 19.5625L28.5156 16.9844V12.0156Z" fill="white"/>
</svg>
