<svg width="56" height="32" viewBox="0 0 56 32" fill="none" xmlns="http://www.w3.org/2000/svg">
<path d="M35.9922 5.99219C36.5547 5.99219 37.0312 6.1875 37.4219 6.57812C37.8125 6.96875 38.0078 7.44531 38.0078 8.00781V19C38.0078 19.5469 37.8125 20.0156 37.4219 20.4062C37.0312 20.7969 36.5547 20.9922 35.9922 20.9922H27.5078L24.7891 24.6016C24.7109 24.7266 24.6016 24.8281 24.4609 24.9062C24.3203 24.9688 24.1641 25 23.9922 25C23.7266 25 23.4922 24.9062 23.2891 24.7188C23.1016 24.5156 23.0078 24.2734 23.0078 23.9922V20.9922H20.0078C19.4453 20.9922 18.9688 20.7969 18.5781 20.4062C18.1875 20.0156 17.9922 19.5469 17.9922 19V8.00781C17.9922 7.44531 18.1875 6.96875 18.5781 6.57812C18.9688 6.1875 19.4453 5.99219 20.0078 5.99219H35.9922ZM22.4922 9.25C22.2891 9.25 22.1172 9.32812 21.9766 9.48438C21.8359 9.625 21.7578 9.79688 21.7422 10C21.7422 10.2031 21.8125 10.3828 21.9531 10.5391C22.1094 10.6797 22.2891 10.75 22.4922 10.75C22.7109 10.75 22.8906 10.6797 23.0312 10.5391C23.1719 10.3828 23.2422 10.2031 23.2422 10C23.2422 9.79688 23.1719 9.625 23.0312 9.48438C22.8906 9.32812 22.7109 9.25 22.4922 9.25ZM22.4922 12.5078C22.2891 12.5078 22.1172 12.5781 21.9766 12.7188C21.8359 12.8594 21.7578 13.0391 21.7422 13.2578C21.7422 13.4609 21.8125 13.6406 21.9531 13.7969C22.1094 13.9375 22.2891 14.0078 22.4922 14.0078C22.7109 14.0078 22.8906 13.9375 23.0312 13.7969C23.1719 13.6406 23.2422 13.4609 23.2422 13.2578C23.2422 13.0391 23.1719 12.8594 23.0312 12.7188C22.8906 12.5781 22.7109 12.5078 22.4922 12.5078ZM21.7422 16.2578C21.7578 16.4609 21.8359 16.6328 21.9766 16.7734C22.1172 16.9141 22.2891 16.9922 22.4922 17.0078C22.7109 17.0078 22.8906 16.9375 23.0312 16.7969C23.1719 16.6406 23.2422 16.4609 23.2422 16.2578C23.2422 16.0391 23.1719 15.8594 23.0312 15.7188C22.8906 15.5781 22.7109 15.5078 22.4922 15.5078C22.2891 15.5078 22.1094 15.5781 21.9531 15.7188C21.8125 15.8594 21.7422 16.0391 21.7422 16.2578ZM33.25 17.0078C33.4531 17.0078 33.625 16.9375 33.7656 16.7969C33.9219 16.6406 34 16.4609 34 16.2578C34 16.0391 33.9219 15.8594 33.7656 15.7188C33.625 15.5781 33.4531 15.5078 33.25 15.5078H25.75C25.5469 15.5078 25.3672 15.5781 25.2109 15.7188C25.0703 15.8594 25 16.0391 25 16.2578C25 16.4609 25.0703 16.6406 25.2109 16.7969C25.3672 16.9375 25.5469 17.0078 25.75 17.0078H33.25ZM33.25 14.0078C33.4531 14.0078 33.625 13.9375 33.7656 13.7969C33.9219 13.6406 34 13.4609 34 13.2578C34 13.0391 33.9219 12.8594 33.7656 12.7188C33.625 12.5781 33.4531 12.5078 33.25 12.5078H25.75C25.5469 12.5078 25.3672 12.5781 25.2109 12.7188C25.0703 12.8594 25 13.0391 25 13.2578C25 13.4609 25.0703 13.6406 25.2109 13.7969C25.3672 13.9375 25.5469 14.0078 25.75 14.0078H33.25ZM33.25 10.75C33.4531 10.75 33.625 10.6797 33.7656 10.5391C33.9219 10.3828 34 10.2031 34 10C34 9.79688 33.9219 9.625 33.7656 9.48438C33.625 9.32812 33.4531 9.25 33.25 9.25H25.75C25.5469 9.25 25.3672 9.32812 25.2109 9.48438C25.0703 9.625 25 9.79688 25 10C25 10.2031 25.0703 10.3828 25.2109 10.5391C25.3672 10.6797 25.5469 10.75 25.75 10.75H33.25Z" fill="white"/>
</svg>
