<svg width="24" height="24" viewBox="0 0 24 24" fill="none" xmlns="http://www.w3.org/2000/svg">
<path d="M13.5 3C16 3 18.125 3.875 19.875 5.625C21.625 7.375 22.5 9.5 22.5 12C22.5 14.5 21.625 16.625 19.875 18.375C18.125 20.125 16 21 13.5 21C11.0312 21 8.90625 20.125 7.125 18.375L8.57812 16.9219C9.92188 18.2969 11.5625 18.9844 13.5 18.9844C15.4375 18.9844 17.0859 18.3047 18.4453 16.9453C19.8047 15.5859 20.4844 13.9375 20.4844 12C20.4844 10.0625 19.8047 8.41406 18.4453 7.05469C17.0859 5.69531 15.4375 5.01562 13.5 5.01562C11.5625 5.01562 9.91406 5.69531 8.55469 7.05469C7.19531 8.41406 6.51562 10.0625 6.51562 12H9.51562L5.4375 16.0312L5.39062 15.8906L1.5 12H4.5C4.5 9.5 5.375 7.375 7.125 5.625C8.875 3.875 11 3 13.5 3ZM12.5156 8.01562H14.0156V12.2344L17.4844 14.3438L16.7812 15.5625L12.5156 12.9844V8.01562Z" fill="white"/>
</svg>
